<svg width="24" height="20" viewBox="0 0 24 20" fill="none" xmlns="http://www.w3.org/2000/svg">
<g clip-path="url(#clip0_41_823)">
<path d="M3.85689 14.7223H4.25064V16.8633C4.25064 17.4949 4.57056 17.8969 5.14477 17.8969C5.54673 17.8969 5.82564 17.6836 6.32602 17.2489L9.1561 14.7223H14.4225C16.867 14.7223 18.1795 13.377 18.1795 10.9734V4.68165C18.1795 2.27814 16.867 0.924622 14.4225 0.924622H3.85689C1.41235 0.924622 0.0998535 2.27814 0.0998535 4.68165V10.9734C0.0998535 13.377 1.41235 14.7223 3.85689 14.7223ZM3.85689 13.4016C2.19985 13.4016 1.42056 12.5649 1.42056 10.9652V4.68985C1.42056 3.09025 2.19985 2.24533 3.85689 2.24533H14.4225C16.0713 2.24533 16.8588 3.09025 16.8588 4.68985V10.9652C16.8588 12.5649 16.0713 13.4016 14.4225 13.4016H9.10689C8.64748 13.4016 8.41781 13.4754 8.1061 13.7953L5.4811 16.3957V14.025C5.4811 13.5739 5.30884 13.4016 4.86587 13.4016H3.85689Z" fill="#EEEEEE"/>
<path d="M12.4373 16.6992H15.0952L17.835 19.0453C18.3354 19.4719 18.6061 19.6934 18.9998 19.6934C19.5659 19.6934 19.8858 19.2914 19.8858 18.668V16.6992H20.058C22.4205 16.6992 23.6592 15.4277 23.6592 13.1063V8.66841C23.6592 6.33869 22.4205 5.0672 20.058 5.0672H12.4373C10.0748 5.0672 8.83618 6.33869 8.83618 8.66841V13.1063C8.83618 15.4359 10.0748 16.6992 12.4373 16.6992Z" fill="#0E0E0E"/>
<path d="M13.3069 10.0219H19.246C19.5987 10.0219 19.8612 9.75936 19.8612 9.41489C19.8612 9.06216 19.5987 8.79966 19.246 8.79966H13.3069C12.946 8.79966 12.6916 9.06216 12.6916 9.41489C12.6916 9.75936 12.946 10.0219 13.3069 10.0219ZM13.3069 13.0571H17.6545C17.999 13.0571 18.278 12.8109 18.278 12.4582C18.278 12.1137 17.999 11.8348 17.6545 11.8348H13.3069C12.946 11.8348 12.6916 12.1137 12.6916 12.4582C12.6916 12.8109 12.946 13.0571 13.3069 13.0571ZM12.4373 16.6992H15.0952L17.835 19.0453C18.3354 19.4719 18.6061 19.6934 18.9998 19.6934C19.5659 19.6934 19.8858 19.2914 19.8858 18.668V16.6992H20.058C22.4205 16.6992 23.6592 15.4277 23.6592 13.1063V8.66841C23.6592 6.33869 22.4205 5.0672 20.058 5.0672H12.4373C10.0748 5.0672 8.83618 6.33869 8.83618 8.66841V13.1063C8.83618 15.4359 10.0748 16.6992 12.4373 16.6992ZM12.462 15.3785C10.8541 15.3785 10.1651 14.6239 10.1651 13.0899V8.68479C10.1651 7.1508 10.8541 6.3879 12.462 6.3879H20.0416C21.6412 6.3879 22.3385 7.1508 22.3385 8.68479V13.0816C22.3385 14.6239 21.6412 15.3785 20.0416 15.3785H19.287C18.9342 15.3785 18.6553 15.5918 18.6553 16.0512V18.2004L15.8827 15.7231C15.612 15.4688 15.3822 15.3785 15.046 15.3785H12.462Z" fill="#EEEEEE"/>
</g>
<defs>
<clipPath id="clip0_41_823">
<rect width="23.5593" height="18.7934" fill="white" transform="translate(0.0998535 0.900024)"/>
</clipPath>
</defs>
</svg>
